<?xml version="1.0" encoding="utf-8"?>
<!-- Generator: Adobe Illustrator 25.2.0, SVG Export Plug-In . SVG Version: 6.00 Build 0)  -->
<svg version="1.1" id="Layer_1" xmlns="http://www.w3.org/2000/svg" xmlns:xlink="http://www.w3.org/1999/xlink" x="0px" y="0px"
	 viewBox="0 0 600 600" style="enable-background:new 0 0 600 600;" xml:space="preserve">
<style type="text/css">
	.st0{opacity:0.1;}
	.st1{fill:#3FA9F5;}
</style>
<g class="st0">
	<rect x="107.5" y="107.5" class="st1" width="385" height="385"/>
</g>
<g class="st0">
	
		<rect x="136.4" y="136.4" transform="matrix(0.1736 -0.9848 0.9848 0.1736 -47.5368 543.3479)" class="st1" width="327.2" height="327.2"/>
</g>
<g class="st0">
	
		<rect x="160.9" y="160.9" transform="matrix(0.342 -0.9397 0.9397 0.342 -84.5138 479.3018)" class="st1" width="278.2" height="278.2"/>
</g>
<g class="st0">
	
		<rect x="181.8" y="181.8" transform="matrix(0.5 -0.866 0.866 0.5 -109.8076 409.8076)" class="st1" width="236.4" height="236.4"/>
</g>
<g class="st0">
	
		<rect x="199.5" y="199.5" transform="matrix(0.6428 -0.766 0.766 0.6428 -122.6496 336.9771)" class="st1" width="201" height="201"/>
</g>
<g class="st0">
	
		<rect x="214.6" y="214.6" transform="matrix(0.766 -0.6428 0.6428 0.766 -122.6496 263.0229)" class="st1" width="170.8" height="170.8"/>
</g>
<g class="st0">
	
		<rect x="227.4" y="227.4" transform="matrix(0.866 -0.5 0.5 0.866 -109.8076 190.1924)" class="st1" width="145.2" height="145.2"/>
</g>
<g class="st0">
	
		<rect x="238.3" y="238.3" transform="matrix(0.9397 -0.342 0.342 0.9397 -84.5138 120.6983)" class="st1" width="123.4" height="123.4"/>
</g>
<g class="st0">
	
		<rect x="247.5" y="247.5" transform="matrix(0.9848 -0.1736 0.1736 0.9848 -47.5368 56.6521)" class="st1" width="104.9" height="104.9"/>
</g>
<g class="st0">
	<rect x="255.4" y="255.4" class="st1" width="89.2" height="89.2"/>
</g>
<g>
</g>
<g>
</g>
<g>
</g>
<g>
</g>
<g>
</g>
<g>
</g>
<g>
</g>
<g>
</g>
<g>
</g>
<g>
</g>
<g>
</g>
<g>
</g>
<g>
</g>
<g>
</g>
<g>
</g>
</svg>
