<?xml version="1.0" encoding="utf-8"?>
<!-- Generator: Adobe Illustrator 25.2.0, SVG Export Plug-In . SVG Version: 6.00 Build 0)  -->
<svg version="1.1" id="Layer_1" xmlns="http://www.w3.org/2000/svg" xmlns:xlink="http://www.w3.org/1999/xlink" x="0px" y="0px"
	 viewBox="0 0 600 600" style="enable-background:new 0 0 600 600;" xml:space="preserve">
<style type="text/css">
	.st0{opacity:0.6;fill:#FFE600;}
	.st1{opacity:0.6;fill:#FFDC00;}
	.st2{opacity:0.6;fill:#FFCA00;}
	.st3{opacity:0.6;fill:#FFA400;}
	.st4{opacity:0.6;fill:#FF7900;}
	.st5{opacity:0.6;fill:#FF5600;}
	.st6{opacity:0.6;fill:#FF3800;}
	.st7{opacity:0.6;fill:#FF1C00;}
	.st8{opacity:0.6;fill:#D90000;}
	.st9{opacity:0.6;fill:#C52B00;}
	.st10{opacity:0.6;fill:#9D0D42;}
	.st11{opacity:0.6;fill:#AC0062;}
	.st12{opacity:0.6;fill:#95004E;}
	.st13{opacity:0.6;fill:#860062;}
	.st14{opacity:0.6;fill:#72217E;}
	.st15{opacity:0.6;fill:#53357E;}
	.st16{opacity:0.6;fill:#2F357E;}
	.st17{opacity:0.6;fill:#264687;}
	.st18{opacity:0.6;fill:#3050B3;}
	.st19{opacity:0.6;fill:#0054E3;}
	.st20{opacity:0.6;fill:#0081E2;}
</style>
<g>
	<polygon class="st0" points="288.9,54.8 86.6,405.1 491.2,405.1 	"/>
	<polygon class="st1" points="234.8,63.4 150.7,459.1 535.4,334.1 	"/>
	<polygon class="st2" points="178.9,106.5 221.2,508.8 548.5,271 	"/>
	<polygon class="st3" points="125.8,173.4 290.4,543 528.1,215.7 	"/>
	<polygon class="st4" points="78.6,244.7 349.3,545.3 474.3,160.5 	"/>
	<polygon class="st5" points="54.8,311.1 405.1,513.4 405.1,108.8 	"/>
	<polygon class="st6" points="63.4,365.2 459.1,449.3 334.1,64.6 	"/>
	<polygon class="st7" points="106.5,421.1 508.8,378.8 271,51.5 	"/>
	<polygon class="st8" points="173.4,474.2 543,309.6 215.7,71.9 	"/>
	<polygon class="st9" points="244.7,521.4 545.3,250.7 160.5,125.7 	"/>
	<polygon class="st10" points="311.1,545.2 513.4,194.9 108.8,194.9 	"/>
	<polygon class="st11" points="365.2,536.6 449.3,140.9 64.6,265.9 	"/>
	<polygon class="st12" points="421.1,493.5 378.8,91.2 51.5,329 	"/>
	<polygon class="st13" points="474.2,426.6 309.6,57 71.9,384.3 	"/>
	<polygon class="st14" points="521.4,355.3 250.7,54.7 125.7,439.5 	"/>
	<polygon class="st15" points="545.2,288.9 194.9,86.6 194.9,491.2 	"/>
	<polygon class="st16" points="536.6,234.8 140.9,150.7 265.9,535.4 	"/>
	<polygon class="st17" points="493.5,178.9 91.2,221.2 329,548.5 	"/>
	<polygon class="st18" points="426.6,125.8 57,290.4 384.3,528.1 	"/>
	<polygon class="st19" points="355.3,78.6 54.7,349.3 439.5,474.3 	"/>
	<polygon class="st20" points="288.9,54.8 86.6,405.1 491.2,405.1 	"/>
</g>
<g>
</g>
<g>
</g>
<g>
</g>
<g>
</g>
<g>
</g>
<g>
</g>
<g>
</g>
<g>
</g>
<g>
</g>
<g>
</g>
<g>
</g>
<g>
</g>
<g>
</g>
<g>
</g>
<g>
</g>
</svg>
